<svg width="24" height="22" viewBox="0 0 24 22" fill="none" xmlns="http://www.w3.org/2000/svg">
<g clip-path="url(#clip0_972_20263)">
<path d="M20.6741 12.5234L18.9324 6.25711C18.4219 4.42133 17.3124 2.80887 15.7803 1.67604C14.2482 0.543205 12.3813 -0.0449891 10.4766 0.004951C8.57178 0.0548911 6.73835 0.740099 5.2677 1.95166C3.79705 3.16322 2.77358 4.8316 2.35997 6.69161L1.01156 12.7554C0.862613 13.4254 0.866057 14.1203 1.02163 14.7888C1.17721 15.4573 1.48095 16.0824 1.91042 16.6178C2.3399 17.1532 2.88414 17.5853 3.50298 17.8822C4.12181 18.1792 4.79943 18.3333 5.48581 18.3333H6.50697C6.71736 19.3694 7.27948 20.3009 8.09807 20.97C8.91667 21.639 9.9414 22.0045 10.9986 22.0045C12.0559 22.0045 13.0806 21.639 13.8992 20.97C14.7178 20.3009 15.2799 19.3694 15.4903 18.3333H16.2585C16.965 18.3333 17.6621 18.17 18.2951 17.8561C18.9281 17.5422 19.48 17.0861 19.9076 16.5236C20.3352 15.9611 20.6269 15.3074 20.76 14.6135C20.8932 13.9196 20.8641 13.2042 20.675 12.5234H20.6741ZM10.9986 20.1666C10.4319 20.1643 9.87973 19.9869 9.41767 19.6587C8.9556 19.3305 8.60622 18.8676 8.41731 18.3333H13.58C13.3911 18.8676 13.0417 19.3305 12.5796 19.6587C12.1176 19.9869 11.5654 20.1643 10.9986 20.1666ZM18.4475 15.4137C18.192 15.7526 17.8611 16.0272 17.4809 16.2157C17.1008 16.4043 16.6819 16.5016 16.2576 16.4999H5.48581C5.07403 16.4999 4.66752 16.4073 4.29629 16.2291C3.92506 16.0509 3.59858 15.7917 3.34096 15.4704C3.08333 15.1492 2.90114 14.7742 2.80782 14.3731C2.71451 13.9721 2.71245 13.5552 2.80181 13.1532L4.14931 7.08852C4.47413 5.62755 5.27801 4.31708 6.43314 3.36544C7.58828 2.41379 9.02838 1.8756 10.5245 1.8364C12.0207 1.79721 13.487 2.25926 14.6903 3.14912C15.8937 4.03898 16.7651 5.30556 17.166 6.74752L18.9076 13.0139C19.0227 13.4221 19.041 13.8516 18.9612 14.2682C18.8813 14.6847 18.7054 15.077 18.4475 15.4137Z" fill="#374957"/>
</g>
<circle cx="19" cy="15" r="5" fill="#FF3E3E"/>
<defs>
<clipPath id="clip0_972_20263">
<rect width="22" height="22" fill="white"/>
</clipPath>
</defs>
</svg>
