<svg width="23" height="17" viewBox="0 0 23 17" fill="none" xmlns="http://www.w3.org/2000/svg">
<path d="M11.7862 8.71085C12.2975 8.26823 12.7077 7.72079 12.9888 7.10567C13.2699 6.49055 13.4154 5.82216 13.4154 5.14585C13.4154 3.87503 12.9105 2.65625 12.0119 1.75763C11.1133 0.859022 9.89453 0.354187 8.6237 0.354187C7.35287 0.354187 6.13409 0.859022 5.23548 1.75763C4.33687 2.65625 3.83203 3.87503 3.83203 5.14585C3.83202 5.82216 3.97751 6.49055 4.25861 7.10567C4.53971 7.72079 4.94985 8.26823 5.4612 8.71085C4.11967 9.31833 2.98148 10.2993 2.18272 11.5365C1.38396 12.7738 0.958442 14.2149 0.957031 15.6875C0.957031 15.9417 1.058 16.1854 1.23772 16.3652C1.41744 16.5449 1.6612 16.6459 1.91536 16.6459C2.16953 16.6459 2.41329 16.5449 2.59301 16.3652C2.77273 16.1854 2.8737 15.9417 2.8737 15.6875C2.8737 14.1625 3.4795 12.7 4.55783 11.6217C5.63617 10.5433 7.0987 9.93752 8.6237 9.93752C10.1487 9.93752 11.6112 10.5433 12.6896 11.6217C13.7679 12.7 14.3737 14.1625 14.3737 15.6875C14.3737 15.9417 14.4747 16.1854 14.6544 16.3652C14.8341 16.5449 15.0779 16.6459 15.332 16.6459C15.5862 16.6459 15.83 16.5449 16.0097 16.3652C16.1894 16.1854 16.2904 15.9417 16.2904 15.6875C16.289 14.2149 15.8634 12.7738 15.0647 11.5365C14.2659 10.2993 13.1277 9.31833 11.7862 8.71085V8.71085ZM8.6237 8.02085C8.05508 8.02085 7.49922 7.85224 7.02643 7.53633C6.55364 7.22042 6.18515 6.77141 5.96754 6.24607C5.74994 5.72073 5.69301 5.14266 5.80394 4.58497C5.91487 4.02727 6.18869 3.515 6.59077 3.11292C6.99284 2.71085 7.50512 2.43703 8.06281 2.3261C8.62051 2.21516 9.19858 2.2721 9.72391 2.4897C10.2493 2.7073 10.6983 3.0758 11.0142 3.54859C11.3301 4.02138 11.4987 4.57723 11.4987 5.14585C11.4987 5.90835 11.1958 6.63962 10.6566 7.17879C10.1175 7.71795 9.3862 8.02085 8.6237 8.02085ZM17.9579 8.32752C18.5712 7.63688 18.9718 6.7837 19.1115 5.87068C19.2512 4.95766 19.1241 4.02372 18.7454 3.18127C18.3667 2.33882 17.7526 1.62378 16.977 1.12222C16.2014 0.620652 15.2973 0.35394 14.3737 0.354187C14.1195 0.354187 13.8758 0.455154 13.6961 0.634877C13.5163 0.814599 13.4154 1.05835 13.4154 1.31252C13.4154 1.56669 13.5163 1.81044 13.6961 1.99016C13.8758 2.16989 14.1195 2.27085 14.3737 2.27085C15.1362 2.27085 15.8675 2.57376 16.4066 3.11292C16.9458 3.65209 17.2487 4.38336 17.2487 5.14585C17.2473 5.64921 17.1139 6.14339 16.8616 6.57897C16.6093 7.01455 16.2471 7.37626 15.8112 7.62794C15.6691 7.7099 15.5504 7.82695 15.4665 7.9679C15.3826 8.10884 15.3363 8.26897 15.332 8.43294C15.328 8.59563 15.3655 8.75666 15.441 8.90085C15.5164 9.04504 15.6273 9.16765 15.7633 9.2571L16.137 9.50627L16.2616 9.57335C17.4168 10.1213 18.3913 10.9878 19.0705 12.0711C19.7496 13.1543 20.1051 14.409 20.0949 15.6875C20.0949 15.9417 20.1959 16.1854 20.3756 16.3652C20.5554 16.5449 20.7991 16.6459 21.0533 16.6459C21.3074 16.6459 21.5512 16.5449 21.7309 16.3652C21.9106 16.1854 22.0116 15.9417 22.0116 15.6875C22.0194 14.2169 21.6511 12.7687 20.9416 11.4805C20.2321 10.1923 19.205 9.10695 17.9579 8.32752V8.32752Z" fill="white"/>
</svg>
